<svg width="32" height="32" viewBox="0 0 32 32" fill="none" xmlns="http://www.w3.org/2000/svg">
<g clip-path="url(#clip0_3423_23715)">
<path d="M0.627441 15.7608C0.627441 7.25521 7.52263 0.359985 16.0283 0.359985C24.534 0.359985 31.4291 7.25521 31.4291 15.7608V16.3317C31.4291 24.8373 24.534 31.7325 16.0283 31.7325C7.52263 31.7325 0.627441 24.8373 0.627441 16.3317V15.7608Z" fill="#05082B"/>
<path fill-rule="evenodd" clip-rule="evenodd" d="M10.9854 14.8143L16.0449 19.9646L21.0504 14.8692L25.1545 19.0471L20.3862 23.901L19.1594 22.6856L22.7338 19.047L21.0504 17.3334L16.0449 22.4288L10.9854 17.2785L9.32256 18.9712L12.9513 22.6651L11.7246 23.8806L6.90186 18.9712L10.9854 14.8143Z" fill="white"/>
<path fill-rule="evenodd" clip-rule="evenodd" d="M21.071 17.2783L16.0114 12.128L11.0059 17.2233L6.90186 13.0456L11.6703 8.19153L12.897 9.40696L9.32256 13.0456L11.0059 14.7592L16.0114 9.66384L21.071 14.8141L22.7338 13.1214L19.1051 9.42748L20.3318 8.21205L25.1545 13.1214L21.071 17.2783Z" fill="white"/>
<path fill-rule="evenodd" clip-rule="evenodd" d="M15.2563 23.78V20.535H16.9086V23.78H15.2563Z" fill="white"/>
<path fill-rule="evenodd" clip-rule="evenodd" d="M15.2563 11.5575V8.31256H16.9086V11.5575H15.2563Z" fill="white"/>
</g>
<defs>
<clipPath id="clip0_3423_23715">
<rect width="31.3725" height="32" fill="white" transform="translate(0.627441)"/>
</clipPath>
</defs>
</svg>
