<svg width="28" height="32" viewBox="0 0 28 32" fill="none" xmlns="http://www.w3.org/2000/svg">
<path fill-rule="evenodd" clip-rule="evenodd" d="M13.8564 0L27.7128 8V24L13.8564 32L0 24V8L13.8564 0Z" fill="url(#paint0_radial_1308_5852)"/>
<path d="M8.40062 12.5653C11.4086 9.62395 16.2856 9.62395 19.2936 12.5653L19.6556 12.9193C19.806 13.0664 19.806 13.3048 19.6556 13.4519L18.4172 14.6628C18.342 14.7363 18.2201 14.7363 18.1449 14.6628L17.6467 14.1757C15.5483 12.1237 12.146 12.1237 10.0475 14.1757L9.51399 14.6974C9.43879 14.7709 9.31687 14.7709 9.24167 14.6974L8.00327 13.4864C7.85287 13.3393 7.85287 13.1009 8.00327 12.9538L8.40062 12.5653ZM21.8622 15.0795L22.9641 16.1541C23.1145 16.3007 23.1145 16.5385 22.9641 16.6851L17.9956 21.5307C17.8452 21.6773 17.6014 21.6773 17.4511 21.5307C17.4511 21.5307 17.4511 21.5307 17.4511 21.5307L13.9247 18.0916C13.8871 18.055 13.8261 18.055 13.7885 18.0916C13.7885 18.0916 13.7885 18.0916 13.7885 18.0916L10.2622 21.5307C10.1119 21.6773 9.86808 21.6773 9.71771 21.5307C9.71771 21.5307 9.71771 21.5307 9.71771 21.5307L4.749 16.6851C4.59864 16.5384 4.59864 16.3007 4.749 16.154L5.85091 15.0794C6.00127 14.9328 6.24506 14.9328 6.39543 15.0794L9.92186 18.5185C9.95945 18.5552 10.0204 18.5552 10.058 18.5185C10.058 18.5185 10.058 18.5185 10.058 18.5185L13.5843 15.0794C13.7346 14.9328 13.9784 14.9328 14.1288 15.0794C14.1288 15.0794 14.1288 15.0794 14.1288 15.0794L17.6552 18.5185C17.6928 18.5552 17.7537 18.5552 17.7913 18.5185L21.3177 15.0795C21.4681 14.9329 21.7119 14.9329 21.8622 15.0795Z" fill="white"/>
<defs>
<radialGradient id="paint0_radial_1308_5852" cx="0" cy="0" r="1" gradientUnits="userSpaceOnUse" gradientTransform="translate(0 16) scale(27.7128 32)">
<stop stop-color="#5D9DF6"/>
<stop offset="1" stop-color="#006FFF"/>
</radialGradient>
</defs>
</svg>
